<svg xmlns="http://www.w3.org/2000/svg" width="320" height="160" viewBox="0 0 320 160">
  <defs>
    <linearGradient id="m-sky" x1="0" y1="0" x2="0" y2="1">
      <stop offset="0" stop-color="#f2d9a8"/><stop offset="0.5" stop-color="#e9e3b0"/><stop offset="1" stop-color="#d8e6ad"/>
    </linearGradient>
    <linearGradient id="m-ground" x1="0" y1="0" x2="0" y2="1">
      <stop offset="0" stop-color="#7fa85a"/><stop offset="1" stop-color="#5c8443"/>
    </linearGradient>
  </defs>
  <rect width="320" height="160" fill="url(#m-sky)"/>
  <circle cx="60" cy="40" r="24" fill="#fdf3d2" opacity="0.75"/>
  <!-- volcan lointain avec panache -->
  <polygon points="230,96 268,44 306,96" fill="#8a7d6b"/>
  <polygon points="256,58 268,44 280,58" fill="#b7503a"/>
  <path d="M268,44 q-6,-16 4,-26 q6,10 0,18 q10,-4 8,6 q-8,-2 -12,2 Z" fill="#c9c3ba" opacity="0.8"/>
  <!-- collines -->
  <path d="M0,104 Q80,84 170,102 T320,100 L320,160 L0,160 Z" fill="url(#m-ground)"/>
  <!-- fougères / palmiers -->
  <g stroke="#3f6b34" stroke-width="3" fill="none" stroke-linecap="round">
    <path d="M40,150 q-4,-26 -18,-38"/><path d="M40,150 q0,-30 4,-44"/><path d="M40,150 q6,-24 22,-34"/>
  </g>
  <g transform="translate(292,150)" stroke="#3f6b34" stroke-width="3" fill="none" stroke-linecap="round">
    <path d="M0,0 q2,-24 -16,-32"/><path d="M0,0 q-2,-28 2,-40"/><path d="M0,0 q4,-22 20,-28"/>
  </g>
  <!-- sauropode -->
  <g fill="#4a6b52">
    <path d="M120,138 q-4,-40 22,-52 q6,0 4,6 q-18,10 -14,46 Z"/>
    <ellipse cx="180" cy="128" rx="42" ry="18"/>
    <path d="M220,124 q22,4 40,18 q-2,4 -8,2 q-16,-10 -34,-10 Z"/>
    <circle cx="141" cy="86" r="8"/>
    <rect x="160" y="140" width="6" height="16" rx="2"/>
    <rect x="176" y="141" width="6" height="16" rx="2"/>
    <rect x="196" y="140" width="6" height="16" rx="2"/>
  </g>
</svg>
