<svg xmlns="http://www.w3.org/2000/svg" width="320" height="160" viewBox="0 0 320 160">
  <defs>
    <linearGradient id="q-sky" x1="0" y1="0" x2="0" y2="1">
      <stop offset="0" stop-color="#bcdcec"/><stop offset="1" stop-color="#e8f4fa"/>
    </linearGradient>
    <linearGradient id="q-ice" x1="0" y1="0" x2="0" y2="1">
      <stop offset="0" stop-color="#eef8fc"/><stop offset="1" stop-color="#cfe6f0"/>
    </linearGradient>
  </defs>
  <rect width="320" height="160" fill="url(#q-sky)"/>
  <circle cx="256" cy="42" r="22" fill="#f4fbff" opacity="0.85"/>
  <!-- montagnes enneigées -->
  <polygon points="-10,108 60,50 120,108" fill="#c3d8e4"/>
  <polygon points="60,50 78,68 96,54 120,108 60,108" fill="#eaf5fb"/>
  <polygon points="90,108 170,44 250,108" fill="#b6cfdd"/>
  <polygon points="170,44 190,66 210,50 250,108 170,108" fill="#e3f1f8"/>
  <polygon points="210,108 280,58 330,108" fill="#c8dce7"/>
  <polygon points="280,58 296,74 312,60 330,108 280,108" fill="#edf7fb"/>
  <!-- calotte / banquise -->
  <rect y="104" width="320" height="56" fill="url(#q-ice)"/>
  <path d="M0,116 Q80,106 160,116 T320,116 L320,160 L0,160 Z" fill="#dcecf3"/>
  <!-- mammouth -->
  <g fill="#6d5544">
    <ellipse cx="150" cy="128" rx="30" ry="18"/>
    <path d="M126,124 q-10,-2 -14,6 q-2,6 4,8 q4,-10 12,-6 Z"/>
    <circle cx="118" cy="128" r="9"/>
    <path d="M112,134 q-8,8 -4,14 q4,-2 4,-8" fill="#efe4d6"/>
    <rect x="136" y="140" width="6" height="12" rx="2"/>
    <rect x="152" y="140" width="6" height="12" rx="2"/>
    <rect x="166" y="139" width="6" height="12" rx="2"/>
  </g>
  <!-- flocons -->
  <g fill="#ffffff" opacity="0.9">
    <circle cx="40" cy="40" r="2"/><circle cx="88" cy="70" r="1.6"/><circle cx="150" cy="30" r="2"/>
    <circle cx="210" cy="60" r="1.6"/><circle cx="300" cy="34" r="2"/><circle cx="20" cy="86" r="1.6"/>
    <circle cx="260" cy="86" r="1.8"/><circle cx="120" cy="80" r="1.4"/>
  </g>
</svg>
