<svg xmlns="http://www.w3.org/2000/svg" width="240" height="160" viewBox="0 0 240 160">
  <defs>
    <radialGradient id="ab-bg" cx="0.5" cy="0.4" r="0.75"><stop offset="0" stop-color="#f6e6bf"/><stop offset="1" stop-color="#caa25c"/></radialGradient>
    <radialGradient id="ab-drop" cx="0.4" cy="0.32" r="0.8"><stop offset="0" stop-color="#ffcf6e"/><stop offset="0.6" stop-color="#e09a2c"/><stop offset="1" stop-color="#a86a12"/></radialGradient>
  </defs>
  <rect width="240" height="160" fill="url(#ab-bg)"/>
  <!-- goutte d'ambre -->
  <path d="M120,18 Q168,32 176,86 Q180,132 120,144 Q60,132 64,86 Q72,32 120,18 Z" fill="url(#ab-drop)"/>
  <path d="M120,18 Q168,32 176,86 Q180,132 120,144 Q60,132 64,86 Q72,32 120,18 Z" fill="none" stroke="#8a5510" stroke-width="2" opacity="0.5"/>
  <!-- reflets -->
  <path d="M96,44 Q86,64 92,92" stroke="#fff2cf" stroke-width="6" fill="none" stroke-linecap="round" opacity="0.55"/>
  <ellipse cx="108" cy="40" rx="14" ry="7" fill="#fff2cf" opacity="0.5"/>
  <!-- insecte inclus (moustique / fourmi) -->
  <g transform="translate(122,88)" fill="#4a2f10">
    <ellipse cx="0" cy="0" rx="5" ry="10"/>
    <ellipse cx="0" cy="-13" rx="4" ry="5"/>
    <ellipse cx="0" cy="13" rx="4" ry="7"/>
    <g stroke="#4a2f10" stroke-width="1.4" stroke-linecap="round"><path d="M-4,-4 l-14,-8 M-4,2 l-16,0 M-4,8 l-14,8 M4,-4 l14,-8 M4,2 l16,0 M4,8 l14,8"/></g>
    <g stroke="#5c3d18" stroke-width="1" opacity="0.7" fill="#a87a3c"><ellipse cx="-8" cy="-2" rx="10" ry="4" transform="rotate(-20 -8 -2)"/><ellipse cx="8" cy="-2" rx="10" ry="4" transform="rotate(20 8 -2)"/></g>
  </g>
</svg>
