<svg xmlns="http://www.w3.org/2000/svg" width="240" height="160" viewBox="0 0 240 160">
  <defs><linearGradient id="di-bg" x1="0" y1="0" x2="0" y2="1"><stop offset="0" stop-color="#e7dfb0"/><stop offset="1" stop-color="#cdd99a"/></linearGradient></defs>
  <rect width="240" height="160" fill="url(#di-bg)"/>
  <circle cx="52" cy="42" r="20" fill="#f6ecc4" opacity="0.7"/>
  <path d="M0,132 Q120,120 240,132 L240,160 L0,160 Z" fill="#7fa85a"/>
  <!-- fougères -->
  <g stroke="#4f7d3f" stroke-width="2.5" fill="none" stroke-linecap="round"><path d="M28,150 q-4,-20 -14,-30 M28,150 q0,-24 4,-34 M28,150 q6,-18 18,-26"/></g>
  <!-- sauropode -->
  <g transform="translate(120,86)" fill="#4a6b52">
    <path d="M-90,44 Q-98,4 -70,-6 Q-50,-40 -22,-56 Q-6,-62 -8,-52 Q-30,-40 -34,-8 Q-30,10 4,14 Q46,18 64,28 Q40,34 8,32 Q-40,30 -58,6 Q-70,20 -66,44 Z"/>
    <!-- ventre / dos -->
    <ellipse cx="-6" cy="18" rx="52" ry="20" fill="#4a6b52"/>
    <!-- tête -->
    <circle cx="-30" cy="-58" r="9"/><path d="M-38,-58 q-8,-2 -12,4 q6,2 12,-1 Z"/>
    <circle cx="-33" cy="-60" r="2" fill="#1f3a2c"/>
    <!-- queue -->
    <path d="M40,26 Q80,22 100,34 Q80,30 44,32 Z"/>
    <!-- pattes -->
    <rect x="-40" y="30" width="13" height="30" rx="4"/><rect x="-14" y="32" width="13" height="28" rx="4"/><rect x="18" y="32" width="12" height="28" rx="4"/><rect x="38" y="30" width="12" height="30" rx="4"/>
  </g>
</svg>
