<svg xmlns="http://www.w3.org/2000/svg" width="240" height="160" viewBox="0 0 240 160">
  <defs><linearGradient id="ma-bg" x1="0" y1="0" x2="0" y2="1"><stop offset="0" stop-color="#cfe0ea"/><stop offset="1" stop-color="#e9f2f6"/></linearGradient></defs>
  <rect width="240" height="160" fill="url(#ma-bg)"/>
  <!-- steppe enneigée -->
  <polygon points="0,80 70,50 140,80" fill="#c7d6e0"/><polygon points="120,80 190,54 240,80" fill="#bccdd9"/>
  <rect y="120" width="240" height="40" fill="#e4edf2"/>
  <path d="M0,124 Q120,116 240,124 L240,160 L0,160 Z" fill="#d6e4ec"/>
  <!-- mammouth -->
  <g transform="translate(120,96)" fill="#6d5544">
    <path d="M-52,20 Q-64,-24 -30,-40 Q10,-52 44,-36 Q64,-24 58,4 Q56,20 48,28 L44,28 Q46,10 40,2 Q10,-14 -24,-6 Q-46,2 -44,26 Z"/>
    <!-- bosse crânienne + tête -->
    <path d="M30,-44 Q56,-46 64,-24 Q66,-6 54,4 Q58,-24 40,-34 Q34,-40 30,-44 Z"/>
    <!-- trompe -->
    <path d="M58,-6 Q76,4 72,24 Q68,34 60,32 Q66,20 60,10 Q54,4 52,-2 Z"/>
    <!-- défense -->
    <path d="M58,8 Q76,16 84,34 Q72,28 62,20 Z" fill="#efe6d6"/>
    <!-- pattes -->
    <rect x="-40" y="24" width="12" height="30" rx="4"/><rect x="-16" y="26" width="12" height="28" rx="4"/><rect x="20" y="26" width="12" height="28" rx="4"/><rect x="40" y="24" width="11" height="30" rx="4"/>
    <!-- pelage (traits) -->
    <g stroke="#5a4535" stroke-width="1.5" opacity="0.5" fill="none"><path d="M-50,-4 l-8,10 M-40,-14 l-8,12 M-28,-22 l-8,12 M-14,-26 l-6,12 M2,-28 l-6,12"/></g>
  </g>
</svg>
