<svg xmlns="http://www.w3.org/2000/svg" width="240" height="160" viewBox="0 0 240 160">
  <defs><linearGradient id="mt-bg" x1="0" y1="0" x2="0" y2="1"><stop offset="0" stop-color="#e7e0c6"/><stop offset="1" stop-color="#cabf94"/></linearGradient></defs>
  <rect width="240" height="160" fill="url(#mt-bg)"/>
  <path d="M0,134 Q120,124 240,134 L240,160 L0,160 Z" fill="#b7a878"/>
  <!-- paresseux géant dressé -->
  <g transform="translate(118,84)" fill="#a5824a">
    <!-- corps massif assis -->
    <path d="M-40,60 Q-58,20 -44,-14 Q-34,-40 -6,-46 Q22,-50 36,-28 Q46,-10 40,16 Q36,44 30,60 Z"/>
    <!-- tête -->
    <path d="M-6,-46 Q-30,-52 -34,-72 Q-32,-88 -14,-86 Q0,-84 2,-68 Q0,-54 -6,-46 Z"/>
    <circle cx="-24" cy="-72" r="3" fill="#5c3d18"/>
    <!-- bras avec grandes griffes -->
    <path d="M30,-16 Q54,-6 58,18 Q50,10 42,8 Q34,0 30,-8 Z"/>
    <g fill="#efe6d6"><path d="M56,16 q10,4 12,14 q-8,-2 -12,-6 Z"/><path d="M50,22 q9,5 10,15 q-7,-3 -11,-8 Z"/></g>
    <!-- pattes/pied -->
    <path d="M-40,58 Q-46,64 -30,66 L28,66 Q40,64 30,58 Z"/>
    <!-- fourrure -->
    <g stroke="#7d6236" stroke-width="1.4" opacity="0.5" fill="none"><path d="M-42,-6 l-8,8 M-40,10 l-8,8 M-36,28 l-8,8 M-30,44 l-8,6"/></g>
  </g>
</svg>
