<svg xmlns="http://www.w3.org/2000/svg" width="240" height="160" viewBox="0 0 240 160">
  <defs><linearGradient id="sm-bg" x1="0" y1="0" x2="0" y2="1"><stop offset="0" stop-color="#f2e0c6"/><stop offset="1" stop-color="#d9c49a"/></linearGradient></defs>
  <rect width="240" height="160" fill="url(#sm-bg)"/>
  <path d="M0,128 Q120,118 240,128 L240,160 L0,160 Z" fill="#c3aa78"/>
  <g opacity="0.5" fill="#b39a68"><ellipse cx="40" cy="130" rx="26" ry="5"/><ellipse cx="200" cy="132" rx="24" ry="5"/></g>
  <!-- félin à dents de sabre -->
  <g transform="translate(118,92)" fill="#c56f5a">
    <!-- corps -->
    <path d="M-64,18 Q-70,-14 -46,-22 Q-20,-30 10,-26 Q40,-22 56,-30 Q58,-14 48,-8 Q42,10 44,30 L36,30 Q34,10 30,0 Q6,-6 -20,-2 Q-46,2 -48,26 L-56,30 Q-58,22 -64,18 Z"/>
    <!-- tête -->
    <path d="M44,-30 Q66,-34 72,-18 Q74,-4 62,2 Q52,4 48,-4 Q52,-18 44,-30 Z"/>
    <!-- oreille -->
    <path d="M54,-32 l6,-12 l6,10 Z"/>
    <!-- pattes -->
    <rect x="-52" y="24" width="11" height="30" rx="4"/><rect x="-30" y="26" width="11" height="28" rx="4"/><rect x="24" y="26" width="11" height="28" rx="4"/><rect x="42" y="24" width="10" height="30" rx="4"/>
  </g>
  <!-- canines en sabre -->
  <g transform="translate(118,92)" fill="#f4ead6"><path d="M60,4 Q62,26 56,34 Q52,26 54,4 Z"/><path d="M66,2 Q69,22 64,30 Q60,22 62,2 Z"/></g>
  <circle cx="182" cy="78" r="3" fill="#5c3324"/>
</svg>
